<svg id="Capa_1" data-name="Capa 1" xmlns="http://www.w3.org/2000/svg" viewBox="0 0 512 96"><defs><style>.cls-1,.cls-2{fill:#fff;}.cls-2{fill-rule:evenodd;}</style></defs><title>logo-light</title><path class="cls-1" d="M30,85l-1,3a.43.43,0,0,1-.53.27,40.41,40.41,0,0,1,2.34-77.83.42.42,0,0,1,.5.53l-1.14,3.58a.39.39,0,0,1-.27.26,36.43,36.43,0,0,0-.16,69.69A.4.4,0,0,1,30,85Z"/><path class="cls-1" d="M80.72,55.74c-2.8,20-20.57,34.61-40.86,34.4a29.76,29.76,0,0,1-4-.27.41.41,0,0,1-.3-.63l2-3a.39.39,0,0,1,.39-.18l.91.07c17.48.89,33.46-10.8,37.37-27.81a36.48,36.48,0,0,0-18.5-40.87.39.39,0,0,1-.16-.55l1.43-2.51a.43.43,0,0,1,.56-.16A39.7,39.7,0,0,1,80.72,55.74Z"/><path class="cls-1" d="M44.48,54.71c3.22.21,5.92.17,9.29.3a.43.43,0,0,1,.35.63c-8.06,14.26-13,19.9-22.6,34.87a.41.41,0,0,1-.73-.37C35.32,78.85,39.13,69.28,40.06,67a.41.41,0,0,0-.38-.55l-13.27-.24a.42.42,0,0,1-.37-.58L36.22,43.15a.41.41,0,0,0-.38-.58l-10.77,0a.42.42,0,0,1-.4-.54l8.46-27.67.32-.29a36.54,36.54,0,0,1,21.48,1.87.43.43,0,0,1,.21.59c-1.2,2.2-2.36,4.35-3.31,6.19a.4.4,0,0,0,.35.59c3.47.12,7.39.18,10.4.29a.4.4,0,0,1,.33.62C57.05,33.57,50,44.7,44.15,54.08A.41.41,0,0,0,44.48,54.71Z"/><path class="cls-1" d="M43.53.07A42.12,42.12,0,0,1,61.24,4a.4.4,0,0,1,.19.57l-4.09,7.73a.4.4,0,0,1-.51.18A40.5,40.5,0,0,0,41,9.26a41.6,41.6,0,0,0-5.84.41.41.41,0,0,1-.45-.52L37.34.77a.42.42,0,0,1,.34-.3A43.43,43.43,0,0,1,43.53.07Z"/><path class="cls-1" d="M63.28,0l0,.07L63.1,0Z"/><path class="cls-1" d="M92.48,22.19V18.1h10.26v4.09Zm0,5.45V23.55h10.26v4.09Zm0,5.45V29h10.26v4.09Zm0,5.45V34.45h10.26v4.09Zm0,5.45V39.9h10.26V44Zm0,5.45V45.35h10.26v4.09Zm0,5.45V50.8h10.26v4.09Zm0,5.45V56.25h10.26v4.09Zm0,5.45V61.7h10.26v4.09Z"/><path class="cls-1" d="M108.48,22.19V18.1h10.25l2.94,4.09Zm0,5.45V23.55h14.15l2.94,4.09Zm0,5.45V29h18l2.94,4.09Zm11.21,5.45-1-1.37v1.37H108.48V34.45h21.94l2.94,4.09ZM108.48,44V39.9h10.25V44Zm0,5.45V45.35h10.25v4.09Zm0,5.45V50.8h10.25v4.09Zm0,5.45V56.25h10.25v4.09Zm0,5.45V61.7h10.25v4.09ZM123.59,44l-2.87-4.09h13.67L137.26,44Zm4,5.45-2.94-4.09h13.68l1,1.36V45.35H149.5v4.09Zm3.9,5.45-2.94-4.09h21v4.09Zm3.9,5.45-2.94-4.09H149.5v4.09Zm3.89,5.45L136.3,61.7h13.2v4.09Zm0-43.6V18.1H149.5v4.09Zm0,5.45V23.55H149.5v4.09Zm0,5.45V29H149.5v4.09Zm0,5.45V34.45H149.5v4.09Zm0,5.45V39.9H149.5V44Z"/><path class="cls-1" d="M155,27.64V24.91a2.59,2.59,0,0,1,.07-.68,1.25,1.25,0,0,1,0-.31,2.13,2.13,0,0,0,0-.37H196v4.09Zm0,5.45V29h10.26v4.09Zm0,5.45V34.45h10.26v4.09ZM155,44V39.9h10.26V44Zm0,5.45V45.35h10.26v4.09Zm0,5.45V50.8h10.26v4.09Zm.14,5.45a2.25,2.25,0,0,0,0-.38,1.13,1.13,0,0,1,0-.3A2.68,2.68,0,0,1,155,59V56.25h41v4.09Zm.41-38.15a6.26,6.26,0,0,1,6.29-4.09H196v4.09Zm6.29,43.6a6.27,6.27,0,0,1-6.29-4.09H196v4.09Zm10.25-27.25V34.45H196v4.09Zm0,5.45V39.9H196V44Zm13.68,5.45V45.35H196v4.09Zm0,5.45V50.8H196v4.09Z"/><path class="cls-1" d="M201.24,27.64V24.91a2.59,2.59,0,0,1,.07-.68,1.25,1.25,0,0,1,0-.31,2.13,2.13,0,0,0,0-.37h37.46v4.09Zm0,5.45V29H211.5v4.09Zm0,5.45V34.45h37.6v4.09Zm0,5.45V39.9h37.6V44Zm0,5.45V45.35H211.5v4.09Zm0,5.45V50.8H211.5v4.09Zm.14,5.45a2.25,2.25,0,0,0,0-.38,1.13,1.13,0,0,1,0-.3,2.68,2.68,0,0,1-.07-.69V56.25h37.6v4.09Zm.41-38.15a6.26,6.26,0,0,1,6.29-4.09h30.76v4.09Zm6.29,43.6a6.27,6.27,0,0,1-6.29-4.09h37.05v4.09Z"/><path class="cls-1" d="M244,22.19V18.1h10.25v4.09Zm0,5.45V23.55h10.25v4.09Zm0,5.45V29h10.25v4.09Zm0,5.45V34.45h10.25v4.09ZM244,44V39.9h10.25V44Zm0,5.45V45.35h10.25v4.09Zm0,5.45V50.8h10.25v4.09Zm.13,5.45a2.25,2.25,0,0,0,0-.38,1.77,1.77,0,0,1,0-.3A2.79,2.79,0,0,1,244,59V56.25h37.59v4.09Zm6.7,5.45a6.27,6.27,0,0,1-6.29-4.09h37.05v4.09Z"/><path class="cls-1" d="M284.37,27.64V24.91a2.7,2.7,0,0,1,.06-.68,1.25,1.25,0,0,1,0-.31,2.13,2.13,0,0,0,0-.37H322v4.09Zm0,5.45V29h10.25v4.09Zm0,5.45V34.45H322v4.09Zm0,5.45V39.9H322V44Zm0,5.45V45.35h10.25v4.09Zm0,5.45V50.8h10.25v4.09Zm.13,5.45a2.25,2.25,0,0,0,0-.38,1.13,1.13,0,0,1,0-.3,2.79,2.79,0,0,1-.06-.69V56.25H322v4.09Zm.41-38.15a6.26,6.26,0,0,1,6.29-4.09H322v4.09Zm6.29,43.6a6.27,6.27,0,0,1-6.29-4.09h37v4.09Z"/><path class="cls-1" d="M327,27.64V24.91a2.59,2.59,0,0,1,.07-.68,1.25,1.25,0,0,1,0-.31,2.13,2.13,0,0,0,0-.37h37.46v4.09Zm0,5.45V29h10.26v4.09Zm0,5.45V34.45h10.26v4.09ZM327,44V39.9h10.26V44Zm0,5.45V45.35h10.26v4.09Zm0,5.45V50.8h10.26v4.09Zm.14,5.45a2.25,2.25,0,0,0,0-.38,1.13,1.13,0,0,1,0-.3A2.68,2.68,0,0,1,327,59V56.25h37.6v4.09Zm.41-38.15a6.26,6.26,0,0,1,6.29-4.09h30.76v4.09Zm6.29,43.6a6.27,6.27,0,0,1-6.29-4.09h37.05v4.09Z"/><path class="cls-1" d="M367.42,22.19V18.1h41v4.09Zm0,5.45V23.55h41v4.09Zm16.07,5.45V29h10.25v4.09Zm0,5.45V34.45h10.25v4.09Zm0,5.45V39.9h10.25V44Zm0,5.45V45.35h10.25v4.09Zm0,5.45V50.8h10.25v4.09Zm0,5.45V56.25h10.25v4.09Zm0,5.45V61.7h10.25v4.09Z"/><path class="cls-1" d="M412.13,22.19V18.1h34.18a6.33,6.33,0,0,1,6.29,4.09Zm0,5.45V23.55H453a2.13,2.13,0,0,0,0,.37,2,2,0,0,1,0,.31,2.7,2.7,0,0,1,.06.68v2.73Zm0,5.45V29h10.25v4.09Zm40.47,1.36a6.35,6.35,0,0,1-6.29,4.09H412.13V34.45ZM412.13,44V39.9h34.18A6.33,6.33,0,0,1,452.6,44Zm0,5.45V45.35h10.25v4.09Zm0,5.45V50.8h10.25v4.09Zm0,5.45V56.25h10.25v4.09Zm0,5.45V61.7h10.25v4.09Zm41-34.07a2.64,2.64,0,0,1-.06.68,1.76,1.76,0,0,1,0,.31,2.25,2.25,0,0,0,0,.38H442.89V29h10.25ZM442.89,49.44V45.35H453a2.05,2.05,0,0,0,0,.37,2,2,0,0,1,0,.31,2.7,2.7,0,0,1,.06.68v2.73Zm0,5.45V50.8h10.25v4.09Zm0,5.45V56.25h10.25v4.09Zm0,5.45V61.7h10.25v4.09Z"/><path class="cls-1" d="M458.61,22.19V18.1h10.26v4.09Zm0,5.45V23.55h10.26v4.09Zm0,5.45V29h10.26v4.09Zm0,5.45V34.45h10.26v4.09Zm0,5.45V39.9h10.26V44Zm0,5.45V45.35h10.26v4.09Zm0,5.45V50.8h10.26v4.09Zm0,5.45V56.25h10.26v4.09Zm0,5.45V61.7h10.26v4.09Z"/><path class="cls-1" d="M474.4,27.64V24.91a2.22,2.22,0,0,1,.07-.68,1.89,1.89,0,0,1,0-.31,1.45,1.45,0,0,0,0-.37H512v4.09Zm0,5.45V29h10.26v4.09Zm0,5.45V34.45h10.26v4.09Zm0,5.45V39.9h10.26V44Zm0,5.45V45.35h10.26v4.09Zm0,5.45V50.8h10.26v4.09Zm.14,5.45a1.53,1.53,0,0,0,0-.38,1.69,1.69,0,0,1,0-.3,2.29,2.29,0,0,1-.07-.69V56.25H512v4.09ZM475,22.19a6.25,6.25,0,0,1,6.29-4.09H512v4.09Zm6.29,43.6A6.26,6.26,0,0,1,475,61.7H512v4.09Z"/><path class="cls-2" d="M484.24,78.22l2.25,16.62a.93.93,0,0,0,1.83,0l2.18-10.73h4a.83.83,0,0,0,.84-.7l1.06-3.51,2.81,7.79a1,1,0,0,0,1.69.21l2.26-3.79H512V82.29c-1.2,0-8.67-.07-9.17,0-1.05.07-1.05.56-2.53,3l-3.17-8.63a.88.88,0,0,0-1.69.07l-1.62,5.55h-4.08a1,1,0,0,0-.92.7l-1.26,6.24L485,70.64a.93.93,0,0,0-1.83.07l-1.26,11.58c-1.62,0-1.34,0-2.33,3.15-.28-1.61-.21-3.15-1.26-3.15h-5.64c-1,0-1,1.19-1.26,2.31l-1.9-6.31a.91.91,0,0,0-1.76.07l-3.77,14-4-21a.9.9,0,0,0-1.76-.07L455.8,82.08H92.47V83.9c1.12,0,363.82.14,364.46-.14s1.76-6.17,2-7.3l3.87,18.64c.21,1.05,1.81,1.24,2,.26l4-13.07,1.83,6.1a.9.9,0,0,0,1.76-.07l1-4.21h4.15l.92,5.33a.9.9,0,0,0,1.76.14l1.69-5.47c.63,0,1.61.14,1.76-.84Z"/></svg>