<?xml version="1.0" standalone="no"?>
<!DOCTYPE svg PUBLIC "-//W3C//DTD SVG 20010904//EN"
 "http://www.w3.org/TR/2001/REC-SVG-20010904/DTD/svg10.dtd">
<svg version="1.0" xmlns="http://www.w3.org/2000/svg"
 width="1024.000000pt" height="1024.000000pt" viewBox="0 0 1024.000000 1024.000000"
 preserveAspectRatio="xMidYMid meet">
<metadata>
Created by potrace 1.11, written by Peter Selinger 2001-2013
</metadata>
<g transform="translate(0.000000,1024.000000) scale(0.100000,-0.100000)"
fill="#000000" stroke="none">
<path d="M5427 10233 c-1 0 -72 -4 -157 -7 -85 -3 -184 -8 -220 -11 -36 -4
-85 -8 -110 -10 -25 -2 -45 -4 -45 -5 0 -2 -13 -4 -30 -5 -96 -6 -95 -6 -141
-160 -14 -49 -35 -117 -46 -150 -22 -68 -29 -94 -30 -112 -1 -7 -6 -13 -11
-13 -6 0 -8 -2 -5 -6 3 -3 -1 -26 -9 -52 -32 -101 -105 -338 -107 -347 -1 -5
-4 -14 -7 -20 -4 -5 -10 -23 -14 -40 -4 -16 -9 -39 -12 -50 -3 -11 -7 -30 -10
-43 -3 -12 1 -29 8 -38 14 -17 26 -17 254 11 201 24 708 24 890 0 17 -2 57 -6
90 -10 33 -3 69 -8 80 -11 11 -2 38 -7 60 -9 76 -9 120 -16 159 -26 21 -6 40
-8 43 -5 3 2 22 -1 42 -9 21 -7 53 -15 72 -18 19 -3 61 -13 93 -22 33 -8 67
-17 75 -19 18 -3 84 -21 154 -43 26 -8 53 -16 60 -17 7 -2 19 -6 27 -9 8 -3
35 -13 60 -21 70 -23 205 -73 242 -89 95 -42 99 -43 121 -16 10 13 33 51 49
84 17 33 34 62 39 63 5 2 9 9 9 16 0 15 70 149 83 157 5 3 8 9 8 13 -1 3 10
29 24 56 14 27 25 53 24 56 0 4 3 10 8 13 5 3 24 38 43 76 19 39 37 72 40 75
5 5 49 89 109 208 13 26 26 49 30 52 12 10 12 42 -1 57 -12 15 -128 72 -178
88 -3 1 -18 7 -35 14 -16 8 -41 18 -55 24 -14 5 -34 14 -45 18 -23 10 -313
109 -335 114 -8 2 -42 11 -75 20 -115 31 -240 62 -285 71 -14 2 -36 7 -50 10
-14 3 -36 8 -50 10 -14 3 -36 7 -50 9 -86 18 -80 17 -175 29 -33 4 -76 10 -95
13 -19 3 -53 6 -75 8 -22 2 -71 6 -110 10 -61 5 -149 9 -373 18 -30 1 -54 1
-55 0z"/>
<path d="M3982 9049 c-13 -5 -33 -11 -45 -13 -12 -3 -47 -12 -77 -21 -30 -9
-59 -17 -65 -18 -5 -2 -14 -5 -20 -9 -5 -3 -26 -9 -45 -13 -19 -4 -39 -10 -45
-13 -5 -4 -15 -7 -22 -8 -24 -4 -240 -88 -363 -141 -119 -52 -419 -201 -430
-214 -6 -7 -80 -50 -131 -77 -20 -11 -43 -24 -50 -31 -8 -6 -59 -41 -114 -78
-87 -57 -291 -206 -305 -222 -3 -3 -25 -22 -50 -42 -197 -160 -471 -433 -615
-614 -21 -28 -42 -52 -45 -55 -11 -9 -190 -253 -207 -282 -10 -15 -21 -28 -25
-28 -4 0 -8 -5 -8 -11 0 -6 -12 -29 -27 -52 -16 -23 -33 -51 -40 -62 -7 -11
-31 -51 -55 -90 -64 -105 -91 -156 -172 -320 -92 -188 -95 -196 -149 -335 -24
-63 -48 -124 -52 -135 -5 -11 -9 -22 -9 -25 -1 -3 -14 -41 -28 -85 -25 -73
-93 -312 -104 -360 -2 -11 -6 -31 -9 -45 -4 -14 -8 -36 -11 -50 -3 -14 -9 -44
-15 -68 -5 -23 -12 -59 -15 -80 -4 -20 -8 -44 -9 -52 -2 -8 -6 -40 -10 -70 -8
-58 -13 -85 -15 -85 0 0 -3 -27 -6 -60 -3 -33 -7 -71 -9 -85 -26 -146 -26
-747 0 -950 11 -90 16 -126 20 -155 3 -16 7 -48 10 -70 3 -22 7 -51 10 -65 3
-14 8 -43 10 -64 3 -21 8 -42 10 -46 3 -4 7 -25 10 -46 3 -22 8 -46 11 -54 3
-8 8 -25 10 -37 10 -54 14 -73 39 -158 14 -49 28 -100 30 -112 3 -12 10 -34
15 -48 5 -14 7 -25 4 -25 -4 0 -2 -6 4 -12 10 -13 45 -122 42 -134 -1 -4 3
-10 9 -13 6 -4 12 -16 14 -26 2 -11 8 -29 12 -40 4 -11 19 -49 33 -85 13 -36
35 -89 48 -118 13 -29 24 -55 24 -57 0 -11 126 -261 135 -267 5 -4 7 -8 3 -8
-4 0 13 -34 37 -76 25 -42 45 -77 45 -79 0 -8 84 -141 92 -146 5 -3 9 -9 9
-13 -1 -6 67 -114 79 -126 3 -3 23 -32 45 -65 41 -61 60 -87 83 -111 7 -8 10
-14 5 -14 -4 0 -3 -4 3 -8 6 -4 40 -43 74 -87 35 -44 70 -88 79 -97 9 -9 34
-38 56 -65 53 -64 377 -387 440 -439 28 -23 79 -66 115 -95 94 -78 229 -179
240 -179 4 0 10 -4 12 -8 4 -11 158 -114 277 -187 162 -98 388 -214 536 -276
44 -18 91 -39 104 -45 14 -7 28 -11 33 -8 4 3 8 0 8 -5 0 -6 8 -11 18 -11 10
0 23 -5 30 -12 7 -7 12 -9 12 -5 0 4 12 1 28 -7 35 -17 179 -67 212 -72 14 -2
32 2 40 9 15 11 77 177 85 224 2 12 7 28 11 35 5 7 10 18 11 23 25 100 26 104
13 120 -7 8 -20 15 -30 15 -9 0 -20 3 -24 7 -3 4 -12 8 -19 9 -104 17 -706
284 -738 327 -3 5 -9 8 -13 8 -21 -4 -340 206 -487 321 -94 73 -133 105 -239
198 -90 78 -275 268 -370 380 -30 35 -63 72 -72 82 -10 10 -18 21 -18 26 0 4
-16 25 -36 47 -19 22 -43 52 -52 68 -9 15 -20 27 -24 27 -4 0 -8 6 -8 14 0 8
-4 16 -8 18 -11 4 -114 158 -188 280 -66 109 -177 321 -224 428 -18 41 -42 98
-54 125 -13 28 -33 79 -45 115 -13 36 -27 74 -31 85 -5 11 -14 38 -20 60 -6
22 -16 49 -21 60 -6 12 -12 30 -14 40 -2 11 -4 20 -5 20 -1 0 -3 7 -5 15 -2 8
-17 67 -33 130 -17 63 -35 140 -41 170 -6 30 -14 66 -17 80 -3 14 -7 39 -10
55 -2 17 -8 55 -14 85 -11 66 -21 132 -25 180 -21 220 -23 248 -24 430 -2 188
6 352 24 505 2 17 6 53 9 80 3 28 8 61 11 75 3 14 8 45 10 68 3 24 7 47 10 52
3 4 7 23 10 41 2 19 7 45 10 59 2 14 7 35 9 48 13 65 71 278 99 362 17 52 31
98 31 102 1 3 4 10 9 14 4 4 7 18 7 31 0 13 5 23 10 23 6 0 10 6 10 14 0 8 5
27 12 43 6 15 12 30 13 33 2 5 20 48 38 90 6 14 11 27 12 30 13 48 156 327
235 461 91 151 251 386 305 446 5 6 20 24 32 40 12 15 31 39 43 53 12 14 42
50 68 80 49 58 300 310 367 370 34 30 179 150 210 173 5 4 33 24 60 45 28 20
52 40 53 45 2 4 10 7 17 7 7 0 15 3 17 8 5 12 78 64 78 55 0 -4 4 -3 8 2 8 12
127 90 182 121 19 10 37 21 40 24 5 6 118 66 157 85 13 5 23 13 23 18 0 4 7 7
15 7 8 0 40 14 70 30 30 17 62 30 69 30 8 0 16 4 18 8 4 9 350 152 369 152 4
0 20 5 36 12 15 6 33 12 40 14 6 1 27 7 46 13 38 13 41 18 83 151 15 47 42
131 60 188 30 92 35 134 19 150 -9 10 -59 10 -83 1z"/>
<path d="M4935 8741 c-3 -2 -31 -5 -62 -7 -64 -3 -150 -11 -203 -19 -19 -3
-53 -8 -75 -10 -22 -3 -51 -7 -65 -10 -14 -2 -38 -7 -55 -10 -16 -3 -41 -7
-55 -10 -14 -3 -38 -8 -55 -11 -56 -10 -72 -29 -100 -119 -15 -47 -28 -93 -30
-102 -2 -10 -4 -19 -5 -20 -2 -2 -3 -6 -5 -10 -1 -5 -4 -15 -8 -23 -3 -8 -19
-62 -37 -120 -17 -58 -47 -157 -66 -220 -20 -63 -40 -131 -46 -150 -5 -19 -12
-42 -15 -50 -3 -8 -7 -19 -8 -25 -2 -5 -13 -44 -26 -85 -12 -41 -23 -77 -24
-80 -18 -68 -27 -99 -35 -115 -7 -16 -74 -238 -85 -280 -1 -5 -5 -17 -8 -25
-3 -8 -19 -62 -36 -120 -17 -58 -36 -118 -42 -135 -6 -16 -12 -34 -13 -40 -12
-47 -31 -111 -49 -165 -12 -36 -22 -67 -22 -70 -5 -20 -29 -103 -42 -140 -8
-25 -16 -52 -18 -60 -2 -8 -13 -44 -25 -80 -12 -36 -23 -72 -25 -80 -1 -8 -10
-37 -19 -65 -40 -131 -89 -291 -91 -304 -2 -9 -4 -17 -5 -18 -2 -2 -3 -6 -5
-10 -1 -5 -4 -15 -8 -23 -5 -13 -33 -105 -112 -373 -22 -74 -22 -78 -5 -99
l17 -22 620 0 c663 -1 658 -1 650 -50 -4 -24 -13 -44 -57 -141 -18 -38 -52
-115 -77 -170 -25 -55 -59 -129 -76 -165 -16 -36 -31 -69 -32 -75 -2 -5 -20
-46 -41 -90 -21 -44 -39 -82 -39 -85 0 -3 -6 -15 -13 -27 -7 -13 -9 -23 -5
-23 4 0 3 -4 -2 -8 -6 -4 -24 -36 -39 -72 -16 -36 -41 -92 -56 -125 -15 -33
-36 -80 -48 -105 -11 -25 -34 -75 -50 -113 -17 -37 -30 -68 -29 -70 0 -1 -6
-15 -16 -32 -14 -26 -68 -142 -72 -155 -1 -3 -12 -27 -25 -55 -13 -27 -24 -52
-24 -55 -1 -3 -11 -25 -23 -50 -12 -25 -33 -72 -48 -105 -15 -33 -37 -80 -48
-105 -11 -25 -21 -47 -22 -50 0 -3 -11 -27 -24 -55 -71 -152 -92 -199 -97
-221 -3 -13 -9 -24 -13 -24 -4 0 -13 -17 -21 -38 -13 -36 -31 -77 -111 -250
-41 -89 -47 -123 -25 -141 9 -8 112 -13 317 -16 167 -2 313 -6 324 -8 11 -2
34 -1 52 4 18 4 33 3 33 -2 0 -4 15 -6 33 -3 17 3 37 5 42 5 9 -1 196 -6 572
-14 186 -5 199 -9 188 -66 -4 -20 -13 -47 -20 -61 -12 -22 -38 -87 -41 -100 0
-3 -8 -22 -17 -42 -10 -21 -17 -40 -17 -44 0 -3 -6 -20 -14 -37 -7 -18 -23
-55 -35 -84 -11 -28 -26 -64 -33 -80 -6 -15 -12 -30 -12 -33 -3 -17 -40 -107
-47 -114 -5 -6 -9 -15 -9 -22 0 -6 -8 -29 -17 -50 -9 -22 -18 -43 -19 -49 -2
-9 -35 -90 -104 -260 -16 -38 -43 -106 -60 -150 -17 -44 -35 -89 -40 -100 -8
-20 -22 -56 -25 -65 -1 -3 -9 -22 -18 -44 -9 -21 -17 -40 -17 -41 0 -1 -8 -20
-17 -41 -9 -22 -18 -43 -19 -49 -1 -5 -43 -112 -93 -237 -50 -125 -91 -232
-91 -238 0 -5 -5 -10 -12 -10 -6 0 -9 -2 -6 -6 3 -3 -10 -42 -29 -87 -19 -45
-36 -86 -37 -92 -4 -13 -24 -64 -35 -90 -5 -11 -17 -42 -27 -70 -10 -27 -23
-53 -28 -57 -6 -4 -8 -8 -4 -8 3 0 -9 -37 -28 -82 -19 -45 -34 -88 -34 -95 0
-7 -5 -13 -12 -13 -6 0 -9 -3 -5 -6 3 -4 0 -19 -8 -34 -7 -14 -12 -35 -10 -46
2 -10 4 -22 4 -25 2 -13 53 -20 66 -9 8 7 40 53 71 103 31 51 61 94 65 95 5 2
9 8 9 13 0 12 52 93 63 97 4 2 7 8 7 13 0 11 132 213 143 217 4 2 7 8 7 13 0
10 120 191 133 200 5 3 8 9 8 13 -1 3 22 41 51 84 29 42 57 85 63 94 5 10 29
45 53 78 23 33 42 65 42 69 0 5 7 11 15 15 8 3 15 10 15 16 0 12 41 73 53 78
4 2 7 8 7 13 0 9 56 93 82 123 10 11 20 28 24 38 3 10 10 18 15 18 6 0 8 4 5
9 -4 5 -2 11 3 13 5 1 42 53 82 113 40 61 76 112 81 113 4 2 8 10 8 18 0 8 5
14 10 14 6 0 10 5 10 10 0 6 5 16 11 23 12 15 132 189 237 347 42 63 79 117
82 120 3 3 43 64 90 135 47 72 88 135 93 140 32 42 134 205 129 205 -4 0 -2 4
4 8 13 9 74 100 74 111 0 4 8 16 18 27 9 10 26 36 37 56 11 21 23 38 27 38 3
0 10 10 14 23 4 12 10 24 13 27 12 8 231 369 231 380 0 5 6 13 13 17 6 4 22
29 35 56 13 26 28 47 33 47 6 0 8 4 4 9 -3 5 -1 12 4 15 5 3 18 24 29 45 29
56 46 85 52 91 3 3 17 26 30 52 14 27 28 48 32 48 5 0 8 9 8 20 0 11 5 20 10
20 6 0 10 5 10 11 0 6 8 23 19 37 10 15 37 62 60 105 41 75 42 79 27 103 -15
21 -24 24 -84 25 -326 6 -839 23 -966 32 -53 3 -81 27 -70 60 6 20 107 184
155 254 16 23 29 44 29 46 0 5 202 333 217 352 4 6 14 22 22 38 8 15 18 27 23
27 4 0 8 9 8 20 0 11 5 20 10 20 6 0 15 10 20 23 5 12 29 52 52 89 59 92 203
323 257 411 25 40 48 74 53 75 4 2 8 8 8 12 0 5 52 91 115 190 63 100 115 186
115 191 0 5 5 9 10 9 6 0 10 4 10 9 0 5 32 58 70 118 39 59 74 115 78 123 6
14 105 172 168 270 49 77 168 267 185 298 27 46 52 86 60 92 3 3 19 28 34 55
16 28 33 52 37 53 4 2 8 7 8 12 0 8 59 109 70 120 9 8 30 44 39 66 5 11 15 27
23 35 17 19 48 70 55 92 3 9 9 17 14 17 5 0 9 7 9 15 0 8 5 15 10 15 6 0 10 7
10 15 0 8 5 15 10 15 6 0 9 3 8 8 -2 6 31 61 101 167 14 22 26 48 27 58 1 20
-59 64 -64 47 -2 -6 -8 -7 -13 -4 -6 3 -83 8 -172 10 -89 2 -252 6 -362 9
-110 2 -291 7 -403 10 -112 3 -212 10 -223 15 -10 6 -19 20 -19 32 0 12 41
100 92 197 116 222 121 231 167 316 22 39 49 90 62 115 12 25 26 47 29 50 4 3
13 22 19 43 15 43 5 62 -39 79 -97 39 -321 118 -350 123 -8 2 -15 4 -15 5 0 1
-11 3 -25 6 -14 2 -36 8 -50 14 -24 9 -135 38 -175 46 -11 2 -45 9 -75 15 -30
7 -64 13 -75 15 -11 1 -45 7 -75 13 -30 6 -73 13 -95 16 -22 3 -56 8 -75 11
-19 3 -60 7 -91 8 -31 2 -60 5 -65 7 -5 3 -26 4 -46 4 -21 -1 -38 1 -38 4 0 7
-529 9 -535 2z"/>
<path d="M7187 8602 c-35 -53 -119 -199 -146 -255 -28 -57 -23 -66 61 -110 29
-15 71 -39 93 -53 22 -13 47 -27 55 -31 15 -7 273 -177 294 -194 6 -5 43 -33
81 -62 39 -28 72 -54 75 -57 3 -3 21 -18 40 -34 167 -136 433 -400 545 -540
17 -21 35 -43 40 -50 21 -23 61 -73 78 -97 73 -102 113 -154 119 -157 5 -2 8
-8 8 -13 0 -11 92 -153 103 -157 4 -2 7 -7 7 -12 0 -5 20 -43 45 -84 25 -42
45 -81 45 -85 0 -5 3 -11 8 -13 9 -4 93 -170 91 -182 0 -5 3 -12 8 -15 12 -9
53 -99 53 -116 0 -8 4 -15 10 -15 5 0 14 -19 21 -42 6 -24 14 -47 19 -53 10
-13 53 -133 97 -270 20 -60 39 -119 44 -130 4 -11 10 -31 12 -45 3 -14 12 -50
21 -82 15 -55 25 -99 30 -128 1 -8 6 -28 9 -45 11 -48 16 -74 32 -170 8 -49
17 -101 19 -115 5 -26 13 -96 22 -190 3 -30 7 -100 9 -155 2 -55 4 -100 5
-100 6 0 4 -88 -2 -91 -4 -3 -4 -15 0 -27 5 -12 7 -40 5 -62 -1 -22 -5 -89 -8
-150 -8 -169 -23 -322 -32 -338 -3 -4 -7 -33 -9 -65 -5 -76 -10 -107 -16 -118
-3 -5 -8 -31 -12 -59 -7 -52 -13 -90 -16 -90 -1 0 -4 -13 -6 -29 -3 -16 -21
-88 -40 -160 -19 -72 -37 -142 -40 -155 -2 -13 -11 -39 -19 -57 -8 -19 -12
-34 -10 -34 2 0 -4 -20 -15 -44 -10 -24 -16 -47 -13 -50 4 -3 0 -6 -7 -6 -7 0
-11 -3 -8 -6 3 -3 -5 -33 -19 -67 -13 -34 -26 -66 -27 -72 -1 -5 -15 -36 -29
-69 -15 -32 -27 -60 -27 -63 0 -11 -155 -315 -191 -373 -21 -36 -49 -84 -61
-107 -12 -24 -26 -43 -30 -43 -4 0 -8 -6 -8 -13 0 -8 -9 -22 -20 -32 -11 -10
-17 -21 -15 -25 3 -5 1 -10 -3 -12 -4 -1 -23 -25 -42 -53 -18 -27 -43 -62 -54
-76 -12 -15 -30 -39 -41 -55 -30 -42 -69 -89 -77 -92 -5 -2 -8 -8 -8 -12 0 -5
-10 -20 -22 -33 -13 -13 -37 -41 -55 -63 -17 -21 -65 -75 -107 -119 -42 -44
-76 -84 -76 -88 0 -5 -4 -5 -10 -2 -5 3 -10 2 -10 -3 0 -12 -90 -99 -224 -216
-32 -28 -64 -55 -70 -61 -19 -17 -183 -142 -247 -188 -37 -27 -215 -143 -231
-151 -7 -3 -26 -15 -43 -25 -53 -33 -168 -96 -230 -127 -33 -16 -61 -32 -63
-36 -2 -5 -8 -8 -13 -8 -6 0 -34 -11 -62 -24 -147 -68 -202 -91 -359 -147 -76
-26 -138 -46 -138 -42 0 3 -6 0 -14 -6 -8 -7 -26 -14 -41 -17 -14 -2 -45 -11
-68 -19 -41 -13 -149 -41 -195 -50 -13 -2 -31 -6 -40 -9 -9 -3 -30 -8 -47 -11
-16 -2 -41 -7 -55 -10 -14 -3 -54 -10 -90 -16 -71 -11 -105 -16 -148 -24 -16
-3 -53 -7 -83 -10 -30 -3 -76 -8 -104 -11 -75 -9 -612 -13 -643 -4 -28 7 -82
-12 -82 -29 0 -5 -12 -23 -26 -40 -14 -17 -22 -31 -17 -31 4 0 3 -4 -2 -8 -6
-4 -31 -38 -56 -77 -25 -38 -62 -95 -82 -126 -70 -107 -56 -116 223 -136 178
-13 622 -6 720 11 14 3 54 7 90 10 36 2 72 7 80 10 8 2 39 7 69 11 30 3 64 8
75 10 12 2 37 7 56 10 19 2 46 7 60 10 44 9 74 14 100 19 14 3 52 12 85 21 33
9 68 16 77 16 10 0 20 4 23 9 3 5 12 7 20 3 8 -3 15 0 15 7 0 6 4 9 10 5 5 -3
31 2 58 10 27 9 55 18 63 19 8 2 21 6 29 9 8 3 47 15 85 27 137 42 378 135
468 181 20 10 37 17 37 15 0 -3 71 32 158 76 159 82 183 95 237 127 17 10 47
28 67 39 41 24 120 74 128 82 3 3 17 11 32 19 15 8 36 21 45 30 10 9 30 22 46
30 15 8 27 18 27 23 0 4 7 8 15 8 9 0 18 7 21 15 4 8 10 15 15 15 13 0 206
151 332 260 137 117 359 343 477 485 23 28 52 62 66 77 13 14 24 31 24 37 0 6
4 11 8 11 5 0 24 21 42 48 19 26 38 48 42 50 4 2 8 8 8 13 0 8 15 28 45 63 6
6 35 49 65 96 30 47 57 87 60 90 11 11 70 112 70 121 0 5 3 9 8 9 4 0 12 10
18 23 22 46 79 152 85 157 7 7 49 99 48 106 0 4 3 10 8 13 8 5 73 136 73 146
0 3 14 34 30 70 17 36 30 68 30 71 0 3 9 24 19 47 11 24 23 56 27 72 4 17 10
35 14 40 14 19 114 341 126 405 3 14 8 34 11 45 8 24 9 29 17 75 4 19 9 43 12
52 5 18 9 35 24 118 6 30 12 64 14 75 2 11 7 43 10 70 4 28 9 57 11 65 2 8 7
44 10 80 2 36 7 75 9 86 27 133 27 863 0 999 -2 11 -7 47 -10 80 -7 76 -10 96
-24 170 -5 33 -13 75 -16 94 -7 42 -9 51 -28 136 -9 39 -18 82 -20 97 -3 15
-8 33 -11 38 -4 6 -8 21 -10 33 -4 33 -50 190 -85 292 -17 50 -34 101 -37 115
-3 14 -13 35 -21 48 -8 12 -11 22 -7 22 4 0 1 7 -6 17 -8 9 -13 18 -11 20 1 2
-6 24 -18 49 -11 26 -20 48 -20 51 0 2 -10 25 -21 51 -51 112 -91 198 -98 212
-4 8 -30 56 -56 105 -27 50 -59 107 -72 127 -12 21 -23 40 -23 43 0 4 -13 26
-30 50 -16 24 -30 48 -30 54 0 6 -4 11 -10 11 -5 0 -10 7 -10 15 0 8 -4 15
-10 15 -5 0 -10 4 -10 10 0 11 -141 214 -152 218 -4 2 -8 8 -8 13 0 5 -8 18
-17 30 -40 46 -49 58 -63 79 -8 13 -24 32 -35 44 -11 12 -42 48 -70 81 -89
107 -341 367 -412 425 -10 8 -61 52 -113 96 -93 79 -257 204 -359 274 -29 19
-58 40 -65 47 -8 7 -16 9 -20 6 -3 -4 -6 -1 -6 5 0 7 -7 12 -15 12 -8 0 -15 3
-15 8 0 4 -21 19 -47 32 -27 14 -50 27 -53 30 -5 6 -60 39 -127 76 -172 96
-172 96 -206 46z"/>
</g>
</svg>
